<svg width="1066" height="287" viewBox="0 0 1066 287" fill="none" xmlns="http://www.w3.org/2000/svg">
<path d="M14.5643 73.8895H28.2851L32.5069 96.432C40.7394 131.707 41.3726 168.234 41.3726 200.587V220.207H16.042L16.8863 152.997L16.6752 137.343L14.5643 73.8895ZM59.3894 220.207V114.8H82.6092V127.95C90.8417 118.766 102.452 112.504 117.862 112.504C153.114 112.504 160.079 135.255 160.291 169.695V220.207H137.071V167.608C137.071 151.119 132.216 133.794 114.273 133.794C95.6967 133.794 82.6092 146.318 82.6092 166.147V220.207H59.3894ZM207.625 174.913C207.625 198.291 209.314 203.509 228.312 201.213L235.278 220.833C187.783 225.843 184.405 206.64 184.405 174.913V136.09H174.062V114.8H184.405V74.3069H207.625V114.8H228.734V136.09H207.625V174.913ZM339.199 198.082C329.489 213.945 313.235 222.712 291.704 222.503C259.83 222.295 237.454 199.335 237.454 167.608C237.454 135.255 258.774 112.087 290.226 112.504C319.779 112.921 344.265 132.751 340.677 176.166H260.674C264.051 191.403 276.295 201.004 291.704 201.213C304.581 201.422 314.924 197.039 321.468 188.272L339.199 198.082ZM261.307 156.337H319.568C315.557 142.352 303.736 133.377 290.226 133.377C275.661 133.377 264.896 142.352 261.307 156.337ZM350.527 220.207V114.8H373.747V130.246C380.502 120.853 389.79 113.965 401.611 113.756C416.809 113.339 425.042 118.348 431.163 123.984L419.976 140.682C417.231 138.595 409.843 134.629 398.022 135.881C385.146 137.343 373.747 152.162 373.747 176.375V220.207H350.527ZM476.049 220.207L434.254 114.8H459.795L488.292 193.49L516.578 114.8H542.12L501.169 220.207H476.049ZM557.484 220.207V114.8H580.704V220.207H557.484ZM555.796 84.1171C555.796 77.2291 561.495 71.3848 569.094 71.3848C576.482 71.3848 582.182 77.2291 582.182 84.1171C582.182 91.6313 576.482 97.2669 569.094 97.2669C561.495 97.2669 555.796 91.6313 555.796 84.1171ZM698.727 198.082C689.017 213.945 672.763 222.712 651.232 222.503C619.358 222.295 596.982 199.335 596.982 167.608C596.982 135.255 618.302 112.087 649.754 112.504C679.307 112.921 703.793 132.751 700.205 176.166H620.202C623.579 191.403 635.823 201.004 651.232 201.213C664.109 201.422 674.452 197.039 680.996 188.272L698.727 198.082ZM620.835 156.337H679.096C675.085 142.352 663.264 133.377 649.754 133.377C635.189 133.377 624.424 142.352 620.835 156.337ZM739.397 220.207L706.889 114.8H732.642L752.906 191.82L775.915 115.635H799.557L799.346 116.052L822.777 191.82L842.408 114.8H867.95L836.498 220.207H811.8L787.736 150.492L764.305 220.207H739.397ZM872.116 220.207L928.899 74.0982H955.074L1012.07 220.833H998.347C992.225 211.858 984.626 198.708 962.462 186.602C949.374 179.505 934.387 177.418 913.911 178.879L898.291 220.207H872.116ZM923.41 154.249C943.253 154.041 954.018 158.007 963.94 163.225L941.986 105.616L923.41 154.249ZM1022.02 73.8895H1035.74L1039.96 96.432C1048.19 131.707 1048.83 168.234 1048.83 200.587V220.207H1023.5L1024.34 152.997L1024.13 137.343L1022.02 73.8895Z" fill="#073B5D"/>
</svg>
